# xmcd CD database file
#
# Track frame offsets:
#	150
#	35045
#	65943
#	96085
#	123150
#	146170
#	172220
#	205708
#	236623
#	269190
#
# Disc length: 4038 seconds
#
# Revision: 0
# Processed by: cddbd v1.5PL3 Copyright (c) Steve Scherf et al.
# Submitted via: CDex 1.51
#
DISCID=a20fc40a
DTITLE=Drummonds featuring Renee Rosnes, Billy Drummond, Ray Drummond - Once Upon A Time
DYEAR=2003
DGENRE=Jazz
TTITLE0=You Must Believe In Spring
TTITLE1=Estate
TTITLE2=Smmer Night
TTITLE3=Blackberry Winter
TTITLE4=Autumn Nocturne
TTITLE5=Once Upon A Summertime
TTITLE6=It Might As Well Be Spring
TTITLE7=The Winter Of My Discontent
TTITLE8=Spring Is Here
TTITLE9=Lullaby Of The Leaves
EXTD=YEAR: 2003
EXTT0=
EXTT1=
EXTT2=
EXTT3=
EXTT4=
EXTT5=
EXTT6=
EXTT7=
EXTT8=
EXTT9=
PLAYORDER=
